<svg id="Layer_1" data-name="Layer 1" xmlns="http://www.w3.org/2000/svg" viewBox="0 0 112 100"><defs><style>.cls-1{opacity:0.12;}</style></defs><title>ic_hero</title><path class="cls-1" d="M90.44,25.32a0.81,0.81,0,0,0-1.29,0l-0.76.7-1.46-1.46,3.28-3.28h1.46q5.45-.35,5.63-6.56a1.11,1.11,0,0,0-.47-0.82,0.88,0.88,0,0,0-.88,0l-3.16,1.58-0.94-.94,1.58-3.16a0.88,0.88,0,0,0,0-.88A1.27,1.27,0,0,0,92.6,10q-6.45.18-6.56,5.63v1.46L82.76,20.4l-5.21-5.21,0.7-.76a1,1,0,0,0,.29-0.76,1.41,1.41,0,0,0-.47-0.7l-4.69-2.81a0.82,0.82,0,0,0-1.11.18l-0.94.94a0.91,0.91,0,0,0-.18,1.11L74,17.06a1.84,1.84,0,0,0,.7.47h0.12a1.38,1.38,0,0,0,.64-0.29l0.76-.7,5.21,5.21-11,11.07a0.42,0.42,0,0,0-.18.29l-0.06.06L69.23,36a1,1,0,0,0,.23.94l0.94,0.94a1,1,0,0,0,.64.29,0.46,0.46,0,0,0,.29-0.06l2.81-.94a2.49,2.49,0,0,0,.35-0.23l11.07-11L87,27.37l-0.7.76a0.81,0.81,0,0,0,0,1.29l8.44,8.44a1,1,0,0,0,.64.29,1.38,1.38,0,0,0,.64-0.29L98.87,35a0.81,0.81,0,0,0,0-1.29ZM75,15.06l-1.64-2.75L76.08,14ZM73.33,35.46l-2.05.7L71.16,36,71.86,34,87.62,18.17a1,1,0,0,0,.29-0.64V15.65a3.3,3.3,0,0,1,3-3.63H91L89.91,14.3a1,1,0,0,0,.18,1.05L92,17.23a1,1,0,0,0,1.05.18l2.29-1.11a3.33,3.33,0,0,1-3.63,3.11H89.79a1.38,1.38,0,0,0-.64.29Zm22.09,0.41-7.09-7.09,1.46-1.46,7.09,7.09Z"/><path class="cls-1" d="M34.18,76.72a0.81,0.81,0,0,0-1.29,0l-0.76.7L30.66,76l3.28-3.28h1.46q5.45-.35,5.63-6.56a1.11,1.11,0,0,0-.47-0.82,0.88,0.88,0,0,0-.88,0l-3.16,1.58-0.94-.94,1.58-3.16a0.88,0.88,0,0,0,0-.88,1.27,1.27,0,0,0-.82-0.47q-6.45.18-6.56,5.63v1.46L26.5,71.8l-5.21-5.21,0.7-.76a1,1,0,0,0,.29-0.76,1.41,1.41,0,0,0-.47-0.7l-4.69-2.81a0.82,0.82,0,0,0-1.11.18l-0.94.94a0.91,0.91,0,0,0-.18,1.11l2.81,4.69a1.84,1.84,0,0,0,.7.47h0.12a1.38,1.38,0,0,0,.64-0.29l0.76-.7,5.21,5.21-11,11.07a0.42,0.42,0,0,0-.18.29l-0.06.06L13,87.38a1,1,0,0,0,.23.94l0.94,0.94a1,1,0,0,0,.64.29,0.46,0.46,0,0,0,.29-0.06l2.81-.94a2.49,2.49,0,0,0,.35-0.23l11.07-11,1.46,1.46-0.7.76a0.81,0.81,0,0,0,0,1.29l8.44,8.44a1,1,0,0,0,.64.29,1.38,1.38,0,0,0,.64-0.29l2.81-2.81a0.81,0.81,0,0,0,0-1.29ZM18.71,66.46l-1.64-2.75,2.75,1.64ZM17.07,86.86l-2.05.7-0.12-.12,0.7-2.05L31.37,69.57a1,1,0,0,0,.29-0.64V67.05a3.3,3.3,0,0,1,3-3.63h0.12L33.65,65.7a1,1,0,0,0,.18,1.05l1.88,1.88a1,1,0,0,0,1.05.18L39,67.7a3.33,3.33,0,0,1-3.63,3.11H33.53a1.38,1.38,0,0,0-.64.29Zm22.09,0.41-7.09-7.09,1.46-1.46,7.09,7.09Z"/><path class="cls-1" d="M27.94,26.9q3.46,0,5.57-3.52A10.15,10.15,0,0,0,35,18a9.17,9.17,0,0,0-3-7.32,5.94,5.94,0,0,0-4-1.58q-3.46,0-5.57,3.52A10.15,10.15,0,0,0,20.91,18a9.17,9.17,0,0,0,3,7.32A5.94,5.94,0,0,0,27.94,26.9Zm0-15.94q2.64,0,4.22,3a8.91,8.91,0,0,1,.94,4,7.44,7.44,0,0,1-2.46,6A4.21,4.21,0,0,1,27.94,25q-2.64,0-4.22-3a8.91,8.91,0,0,1-.94-4,7.44,7.44,0,0,1,2.46-6A4.21,4.21,0,0,1,27.94,11ZM14.87,28.48L13,34.11a1,1,0,0,0,.12.82,1.14,1.14,0,0,0,.76.41H42a1,1,0,0,0,.76-0.41,1,1,0,0,0,.12-0.82L41,28.48a1.07,1.07,0,0,0-.64-0.59L33.8,26a1.18,1.18,0,0,0-.64.06l-5.21,2.58-5.21-2.58A1.18,1.18,0,0,0,22.08,26L15.52,27.9A0.9,0.9,0,0,0,14.87,28.48Zm7.32-.59,5.33,2.64a0.78,0.78,0,0,0,.82,0l5.33-2.64,5.68,1.64,1.35,3.93H15.17l1.35-3.93Z"/><path class="cls-1" d="M84.2,80.16q3.46,0,5.57-3.52a10.15,10.15,0,0,0,1.46-5.39,9.17,9.17,0,0,0-3-7.32,5.94,5.94,0,0,0-4-1.58q-3.46,0-5.57,3.52a10.15,10.15,0,0,0-1.46,5.39,9.17,9.17,0,0,0,3,7.32A5.94,5.94,0,0,0,84.2,80.16Zm0-15.94q2.64,0,4.22,3a8.91,8.91,0,0,1,.94,4,7.44,7.44,0,0,1-2.46,6,4.21,4.21,0,0,1-2.7,1.05q-2.64,0-4.22-3a8.91,8.91,0,0,1-.94-4,7.44,7.44,0,0,1,2.46-6A4.21,4.21,0,0,1,84.2,64.23ZM71.13,81.75l-1.87,5.63a1,1,0,0,0,.12.82,1.14,1.14,0,0,0,.76.41H98.26A1,1,0,0,0,99,88.19a1,1,0,0,0,.12-0.82l-1.87-5.62a1.07,1.07,0,0,0-.64-0.59l-6.56-1.87a1.18,1.18,0,0,0-.64.06L84.2,81.92,79,79.34a1.18,1.18,0,0,0-.64-0.06l-6.56,1.88A0.9,0.9,0,0,0,71.13,81.75Zm7.32-.59,5.33,2.64a0.78,0.78,0,0,0,.82,0l5.33-2.64,5.68,1.64L97,86.73H71.42l1.35-3.93Z"/></svg>