<svg id="Layer_1" data-name="Layer 1" xmlns="http://www.w3.org/2000/svg" viewBox="0 0 112 100"><defs><style>.cls-1{opacity:0.12;}</style></defs><title>ic_hero</title><path class="cls-1" d="M90.44,25.32a0.81,0.81,0,0,0-1.29,0l-0.76.7-1.46-1.46,3.28-3.28h1.46q5.45-.35,5.63-6.56a1.11,1.11,0,0,0-.47-0.82,0.88,0.88,0,0,0-.88,0l-3.16,1.58-0.94-.94,1.58-3.16a0.88,0.88,0,0,0,0-.88A1.27,1.27,0,0,0,92.6,10q-6.45.18-6.56,5.63v1.46L82.76,20.4l-5.21-5.21,0.7-.76a1,1,0,0,0,.29-0.76,1.41,1.41,0,0,0-.47-0.7l-4.69-2.81a0.82,0.82,0,0,0-1.11.18l-0.94.94a0.91,0.91,0,0,0-.18,1.11L74,17.06a1.84,1.84,0,0,0,.7.47h0.12a1.38,1.38,0,0,0,.64-0.29l0.76-.7,5.21,5.21-11,11.07a0.42,0.42,0,0,0-.18.29l-0.06.06L69.23,36a1,1,0,0,0,.23.94l0.94,0.94a1,1,0,0,0,.64.29,0.46,0.46,0,0,0,.29-0.06l2.81-.94a2.49,2.49,0,0,0,.35-0.23l11.07-11L87,27.37l-0.7.76a0.81,0.81,0,0,0,0,1.29l8.44,8.44a1,1,0,0,0,.64.29,1.38,1.38,0,0,0,.64-0.29L98.87,35a0.81,0.81,0,0,0,0-1.29ZM75,15.06l-1.64-2.75L76.08,14ZM73.33,35.46l-2.05.7L71.16,36,71.86,34,87.62,18.17a1,1,0,0,0,.29-0.64V15.65a3.3,3.3,0,0,1,3-3.63H91L89.91,14.3a1,1,0,0,0,.18,1.05L92,17.23a1,1,0,0,0,1.05.18l2.29-1.11a3.33,3.33,0,0,1-3.63,3.11H89.79a1.38,1.38,0,0,0-.64.29Zm22.09,0.41-7.09-7.09,1.46-1.46,7.09,7.09Z"/><path class="cls-1" d="M34.18,76.72a0.81,0.81,0,0,0-1.29,0l-0.76.7L30.66,76l3.28-3.28h1.46q5.45-.35,5.63-6.56a1.11,1.11,0,0,0-.47-0.82,0.88,0.88,0,0,0-.88,0l-3.16,1.58-0.94-.94,1.58-3.16a0.88,0.88,0,0,0,0-.88,1.27,1.27,0,0,0-.82-0.47q-6.45.18-6.56,5.63v1.46L26.5,71.8l-5.21-5.21,0.7-.76a1,1,0,0,0,.29-0.76,1.41,1.41,0,0,0-.47-0.7l-4.69-2.81a0.82,0.82,0,0,0-1.11.18l-0.94.94a0.91,0.91,0,0,0-.18,1.11l2.81,4.69a1.84,1.84,0,0,0,.7.47h0.12a1.38,1.38,0,0,0,.64-0.29l0.76-.7,5.21,5.21-11,11.07a0.42,0.42,0,0,0-.18.29l-0.06.06L13,87.38a1,1,0,0,0,.23.94l0.94,0.94a1,1,0,0,0,.64.29,0.46,0.46,0,0,0,.29-0.06l2.81-.94a2.49,2.49,0,0,0,.35-0.23l11.07-11,1.46,1.46-0.7.76a0.81,0.81,0,0,0,0,1.29l8.44,8.44a1,1,0,0,0,.64.29,1.38,1.38,0,0,0,.64-0.29l2.81-2.81a0.81,0.81,0,0,0,0-1.29ZM18.71,66.46l-1.64-2.75,2.75,1.64ZM17.07,86.86l-2.05.7-0.12-.12,0.7-2.05L31.37,69.57a1,1,0,0,0,.29-0.64V67.05a3.3,3.3,0,0,1,3-3.63h0.12L33.65,65.7a1,1,0,0,0,.18,1.05l1.88,1.88a1,1,0,0,0,1.05.18L39,67.7a3.33,3.33,0,0,1-3.63,3.11H33.53a1.38,1.38,0,0,0-.64.29Zm22.09,0.41-7.09-7.09,1.46-1.46,7.09,7.09Z"/><path class="cls-1" d="M42,37.21H41.06V24.09a1.73,1.73,0,0,0-1.29-1.82,3.68,3.68,0,0,0-.59-0.06H36.38a1.73,1.73,0,0,0-1.82,1.29,3.68,3.68,0,0,0-.06.59V37.21H33.56V14.71a1.73,1.73,0,0,0-1.29-1.82,3.68,3.68,0,0,0-.59-0.06H28.88a1.73,1.73,0,0,0-1.82,1.29,3.68,3.68,0,0,0-.06.59v22.5H26.06V28.78A1.73,1.73,0,0,0,24.78,27a3.68,3.68,0,0,0-.59-0.06H21.38a1.73,1.73,0,0,0-1.82,1.29,3.68,3.68,0,0,0-.06.59v8.44H14.81V33.46h1.88a0.94,0.94,0,1,0,0-1.88H14.81V28.78a0.94,0.94,0,1,0,0-1.87V24.09h1.88a0.94,0.94,0,0,0,0-1.87H14.81V19.4a0.94,0.94,0,1,0,0-1.87V14.71h1.88a0.94,0.94,0,0,0,0-1.87H14.81V10a0.94,0.94,0,0,0-1.87,0V37.21A1.73,1.73,0,0,0,14.23,39a3.68,3.68,0,0,0,.59.06H42A0.94,0.94,0,0,0,42,37.21ZM36.38,24.09h2.81V37.21H36.38V24.09Zm-7.5-9.37h2.81v22.5H28.88V14.71Zm-7.5,14.06h2.81v8.44H21.38V28.78Z"/><path class="cls-1" d="M98.26,88.61H97.32V75.49A1.73,1.73,0,0,0,96,73.67a3.68,3.68,0,0,0-.59-0.06H92.63a1.73,1.73,0,0,0-1.82,1.29,3.68,3.68,0,0,0-.06.59V88.61H89.82V66.11a1.73,1.73,0,0,0-1.29-1.82,3.68,3.68,0,0,0-.59-0.06H85.13a1.73,1.73,0,0,0-1.82,1.29,3.68,3.68,0,0,0-.06.59v22.5H82.32V80.18A1.73,1.73,0,0,0,81,78.36a3.68,3.68,0,0,0-.59-0.06H77.63a1.73,1.73,0,0,0-1.82,1.29,3.68,3.68,0,0,0-.06.59v8.44H71.07V84.86h1.88a0.94,0.94,0,1,0,0-1.87H71.07V80.18a0.94,0.94,0,1,0,0-1.87V75.49h1.88a0.94,0.94,0,1,0,0-1.87H71.07V70.8a0.94,0.94,0,1,0,0-1.87V66.11h1.88a0.94,0.94,0,1,0,0-1.87H71.07V61.43a0.94,0.94,0,0,0-1.87,0V88.61a1.73,1.73,0,0,0,1.29,1.82,3.68,3.68,0,0,0,.59.06H98.26A0.94,0.94,0,1,0,98.26,88.61ZM92.63,75.49h2.81V88.61H92.63V75.49Zm-7.5-9.37h2.81v22.5H85.13V66.11Zm-7.5,14.06h2.81v8.44H77.63V80.18Z"/></svg>