<svg id="Layer_1" data-name="Layer 1" xmlns="http://www.w3.org/2000/svg" viewBox="0 0 112 100"><defs><style>.cls-1{opacity:0.12;}</style></defs><title>ic_hero</title><path class="cls-1" d="M90.44,25.32a0.81,0.81,0,0,0-1.29,0l-0.76.7-1.46-1.46,3.28-3.28h1.46q5.45-.35,5.63-6.56a1.11,1.11,0,0,0-.47-0.82,0.88,0.88,0,0,0-.88,0l-3.16,1.58-0.94-.94,1.58-3.16a0.88,0.88,0,0,0,0-.88A1.27,1.27,0,0,0,92.6,10q-6.45.18-6.56,5.63v1.46L82.76,20.4l-5.21-5.21,0.7-.76a1,1,0,0,0,.29-0.76,1.41,1.41,0,0,0-.47-0.7l-4.69-2.81a0.82,0.82,0,0,0-1.11.18l-0.94.94a0.91,0.91,0,0,0-.18,1.11L74,17.06a1.84,1.84,0,0,0,.7.47h0.12a1.38,1.38,0,0,0,.64-0.29l0.76-.7,5.21,5.21-11,11.07a0.42,0.42,0,0,0-.18.29l-0.06.06L69.23,36a1,1,0,0,0,.23.94l0.94,0.94a1,1,0,0,0,.64.29,0.46,0.46,0,0,0,.29-0.06l2.81-.94a2.49,2.49,0,0,0,.35-0.23l11.07-11L87,27.37l-0.7.76a0.81,0.81,0,0,0,0,1.29l8.44,8.44a1,1,0,0,0,.64.29,1.38,1.38,0,0,0,.64-0.29L98.87,35a0.81,0.81,0,0,0,0-1.29ZM75,15.06l-1.64-2.75L76.08,14ZM73.33,35.46l-2.05.7L71.16,36,71.86,34,87.62,18.17a1,1,0,0,0,.29-0.64V15.65a3.3,3.3,0,0,1,3-3.63H91L89.91,14.3a1,1,0,0,0,.18,1.05L92,17.23a1,1,0,0,0,1.05.18l2.29-1.11a3.33,3.33,0,0,1-3.63,3.11H89.79a1.38,1.38,0,0,0-.64.29Zm22.09,0.41-7.09-7.09,1.46-1.46,7.09,7.09Z"/><path class="cls-1" d="M34.18,76.72a0.81,0.81,0,0,0-1.29,0l-0.76.7L30.66,76l3.28-3.28h1.46q5.45-.35,5.63-6.56a1.11,1.11,0,0,0-.47-0.82,0.88,0.88,0,0,0-.88,0l-3.16,1.58-0.94-.94,1.58-3.16a0.88,0.88,0,0,0,0-.88,1.27,1.27,0,0,0-.82-0.47q-6.45.18-6.56,5.63v1.46L26.5,71.8l-5.21-5.21,0.7-.76a1,1,0,0,0,.29-0.76,1.41,1.41,0,0,0-.47-0.7l-4.69-2.81a0.82,0.82,0,0,0-1.11.18l-0.94.94a0.91,0.91,0,0,0-.18,1.11l2.81,4.69a1.84,1.84,0,0,0,.7.47h0.12a1.38,1.38,0,0,0,.64-0.29l0.76-.7,5.21,5.21-11,11.07a0.42,0.42,0,0,0-.18.29l-0.06.06L13,87.38a1,1,0,0,0,.23.94l0.94,0.94a1,1,0,0,0,.64.29,0.46,0.46,0,0,0,.29-0.06l2.81-.94a2.49,2.49,0,0,0,.35-0.23l11.07-11,1.46,1.46-0.7.76a0.81,0.81,0,0,0,0,1.29l8.44,8.44a1,1,0,0,0,.64.29,1.38,1.38,0,0,0,.64-0.29l2.81-2.81a0.81,0.81,0,0,0,0-1.29ZM18.71,66.46l-1.64-2.75,2.75,1.64ZM17.07,86.86l-2.05.7-0.12-.12,0.7-2.05L31.37,69.57a1,1,0,0,0,.29-0.64V67.05a3.3,3.3,0,0,1,3-3.63h0.12L33.65,65.7a1,1,0,0,0,.18,1.05l1.88,1.88a1,1,0,0,0,1.05.18L39,67.7a3.33,3.33,0,0,1-3.63,3.11H33.53a1.38,1.38,0,0,0-.64.29Zm22.09,0.41-7.09-7.09,1.46-1.46,7.09,7.09Z"/><path class="cls-1" d="M13.88,27.83h3l0.59,1.64-2.4,2.4a0.81,0.81,0,0,0,0,1.29l3.75,3.75a0.81,0.81,0,0,0,1.29,0l2.4-2.4,1.64,0.59v3a1,1,0,0,0,.94.94h5.63a1,1,0,0,0,.94-0.94v-3l1.64-.59,2.4,2.4a0.81,0.81,0,0,0,1.29,0l3.75-3.75a0.81,0.81,0,0,0,0-1.29l-2.4-2.4L39,27.83h3a1,1,0,0,0,.94-0.94V21.26A1,1,0,0,0,42,20.33H39l-0.59-1.64,2.4-2.4a0.81,0.81,0,0,0,0-1.29L37,11.24a0.81,0.81,0,0,0-1.29,0l-2.4,2.4-1.64-.59V10a1,1,0,0,0-.94-0.94H25.13a1,1,0,0,0-.94.94v3l-1.64.59-2.4-2.4a0.81,0.81,0,0,0-1.29,0L15.11,15a0.81,0.81,0,0,0,0,1.29l2.4,2.4-0.59,1.64h-3a1,1,0,0,0-.94.94v5.63A1,1,0,0,0,13.88,27.83Zm0.94-5.62h2.81a1,1,0,0,0,.88-0.64l0.94-2.81a1,1,0,0,0-.23-0.94L17.1,15.64l2.4-2.4,2.17,2.11a0.86,0.86,0,0,0,.94.23l2.81-.94a1,1,0,0,0,.64-0.88V11h3.75v2.81a1,1,0,0,0,.64.88l2.81,0.94a1,1,0,0,0,.94-0.23l2.17-2.11,2.4,2.4-2.11,2.17a0.86,0.86,0,0,0-.23.94l0.94,2.81a1,1,0,0,0,.88.64h2.81V26H38.25a1,1,0,0,0-.88.64l-0.94,2.81a1,1,0,0,0,.23.94l2.11,2.17-2.4,2.4-2.17-2.11a0.86,0.86,0,0,0-.94-0.23l-2.81.94a1,1,0,0,0-.64.88V37.2H26.06V34.39a1,1,0,0,0-.64-0.88l-2.81-.94a1,1,0,0,0-.94.23L19.5,34.92l-2.4-2.4,2.11-2.17a0.86,0.86,0,0,0,.23-0.94L18.51,26.6A1,1,0,0,0,17.63,26H14.81V22.2Zm13.13,5.63a3.51,3.51,0,0,0,3.34-2.05,3.76,3.76,0,0,0,.41-1.7,3.51,3.51,0,0,0-2.05-3.34,3.76,3.76,0,0,0-1.7-.41,3.51,3.51,0,0,0-3.34,2.05,3.76,3.76,0,0,0-.41,1.7,3.51,3.51,0,0,0,2.05,3.34A3.76,3.76,0,0,0,27.94,27.83Zm0-5.62a1.73,1.73,0,0,1,1.82,1.29,3.68,3.68,0,0,1,.06.59,1.73,1.73,0,0,1-1.29,1.82,3.68,3.68,0,0,1-.59.06,1.73,1.73,0,0,1-1.82-1.29,3.68,3.68,0,0,1-.06-0.59,1.73,1.73,0,0,1,1.29-1.82A3.68,3.68,0,0,1,27.94,22.2Z"/><path class="cls-1" d="M70.13,79.23h3l0.59,1.64-2.4,2.4a0.81,0.81,0,0,0,0,1.29l3.75,3.75a0.81,0.81,0,0,0,1.29,0l2.4-2.4,1.64,0.59v3a1,1,0,0,0,.94.94H87a1,1,0,0,0,.94-0.94v-3l1.64-.59,2.4,2.4a0.81,0.81,0,0,0,1.29,0L97,84.56a0.81,0.81,0,0,0,0-1.29l-2.4-2.4,0.59-1.64h3a1,1,0,0,0,.94-0.94V72.66a1,1,0,0,0-.94-0.94h-3l-0.59-1.64,2.4-2.4a0.81,0.81,0,0,0,0-1.29l-3.75-3.75a0.81,0.81,0,0,0-1.29,0L89.59,65l-1.64-.59v-3A1,1,0,0,0,87,60.48H81.38a1,1,0,0,0-.94.94v3L78.81,65l-2.4-2.4a0.81,0.81,0,0,0-1.29,0l-3.75,3.75a0.81,0.81,0,0,0,0,1.29l2.4,2.4-0.59,1.64h-3a1,1,0,0,0-.94.94v5.63A1,1,0,0,0,70.13,79.23Zm0.94-5.62h2.81A1,1,0,0,0,74.76,73l0.94-2.81a1,1,0,0,0-.23-0.94L73.36,67l2.4-2.4,2.17,2.11a0.86,0.86,0,0,0,.94.23L81.68,66a1,1,0,0,0,.64-0.88V62.35h3.75v2.81a1,1,0,0,0,.64.88L89.53,67a1,1,0,0,0,.94-0.23l2.17-2.11L95,67l-2.11,2.17a0.86,0.86,0,0,0-.23.94L93.63,73a1,1,0,0,0,.88.64h2.81v3.75H94.51a1,1,0,0,0-.88.64l-0.94,2.81a1,1,0,0,0,.23.94L95,83.91l-2.4,2.4-2.17-2.11A0.86,0.86,0,0,0,89.53,84l-2.81.94a1,1,0,0,0-.64.88V88.6H82.32V85.79a1,1,0,0,0-.64-0.88L78.86,84a1,1,0,0,0-.94.23l-2.17,2.11-2.4-2.4,2.11-2.17a0.86,0.86,0,0,0,.23-0.94L74.76,78a1,1,0,0,0-.88-0.64H71.07V73.6ZM84.2,79.23a3.51,3.51,0,0,0,3.34-2.05,3.76,3.76,0,0,0,.41-1.7,3.51,3.51,0,0,0-2.05-3.34,3.76,3.76,0,0,0-1.7-.41,3.51,3.51,0,0,0-3.34,2.05,3.76,3.76,0,0,0-.41,1.7,3.51,3.51,0,0,0,2.05,3.34A3.76,3.76,0,0,0,84.2,79.23Zm0-5.62A1.73,1.73,0,0,1,86,74.89a3.68,3.68,0,0,1,.06.59,1.73,1.73,0,0,1-1.29,1.82,3.68,3.68,0,0,1-.59.06,1.73,1.73,0,0,1-1.82-1.29,3.68,3.68,0,0,1-.06-0.59,1.73,1.73,0,0,1,1.29-1.82A3.68,3.68,0,0,1,84.2,73.6Z"/></svg>