<svg id="Layer_1" data-name="Layer 1" xmlns="http://www.w3.org/2000/svg" viewBox="0 0 112 100"><defs><style>.cls-1{opacity:0.12;}</style></defs><title>ic_hero</title><path class="cls-1" d="M90.44,25.32a0.81,0.81,0,0,0-1.29,0l-0.76.7-1.46-1.46,3.28-3.28h1.46q5.45-.35,5.63-6.56a1.11,1.11,0,0,0-.47-0.82,0.88,0.88,0,0,0-.88,0l-3.16,1.58-0.94-.94,1.58-3.16a0.88,0.88,0,0,0,0-.88A1.27,1.27,0,0,0,92.6,10q-6.45.18-6.56,5.63v1.46L82.76,20.4l-5.21-5.21,0.7-.76a1,1,0,0,0,.29-0.76,1.41,1.41,0,0,0-.47-0.7l-4.69-2.81a0.82,0.82,0,0,0-1.11.18l-0.94.94a0.91,0.91,0,0,0-.18,1.11L74,17.06a1.84,1.84,0,0,0,.7.47h0.12a1.38,1.38,0,0,0,.64-0.29l0.76-.7,5.21,5.21-11,11.07a0.42,0.42,0,0,0-.18.29l-0.06.06L69.23,36a1,1,0,0,0,.23.94l0.94,0.94a1,1,0,0,0,.64.29,0.46,0.46,0,0,0,.29-0.06l2.81-.94a2.49,2.49,0,0,0,.35-0.23l11.07-11L87,27.37l-0.7.76a0.81,0.81,0,0,0,0,1.29l8.44,8.44a1,1,0,0,0,.64.29,1.38,1.38,0,0,0,.64-0.29L98.87,35a0.81,0.81,0,0,0,0-1.29ZM75,15.06l-1.64-2.75L76.08,14ZM73.33,35.46l-2.05.7L71.16,36,71.86,34,87.62,18.17a1,1,0,0,0,.29-0.64V15.65a3.3,3.3,0,0,1,3-3.63H91L89.91,14.3a1,1,0,0,0,.18,1.05L92,17.23a1,1,0,0,0,1.05.18l2.29-1.11a3.33,3.33,0,0,1-3.63,3.11H89.79a1.38,1.38,0,0,0-.64.29Zm22.09,0.41-7.09-7.09,1.46-1.46,7.09,7.09Z"/><path class="cls-1" d="M34.18,76.72a0.81,0.81,0,0,0-1.29,0l-0.76.7L30.66,76l3.28-3.28h1.46q5.45-.35,5.63-6.56a1.11,1.11,0,0,0-.47-0.82,0.88,0.88,0,0,0-.88,0l-3.16,1.58-0.94-.94,1.58-3.16a0.88,0.88,0,0,0,0-.88,1.27,1.27,0,0,0-.82-0.47q-6.45.18-6.56,5.63v1.46L26.5,71.8l-5.21-5.21,0.7-.76a1,1,0,0,0,.29-0.76,1.41,1.41,0,0,0-.47-0.7l-4.69-2.81a0.82,0.82,0,0,0-1.11.18l-0.94.94a0.91,0.91,0,0,0-.18,1.11l2.81,4.69a1.84,1.84,0,0,0,.7.47h0.12a1.38,1.38,0,0,0,.64-0.29l0.76-.7,5.21,5.21-11,11.07a0.42,0.42,0,0,0-.18.29l-0.06.06L13,87.38a1,1,0,0,0,.23.94l0.94,0.94a1,1,0,0,0,.64.29,0.46,0.46,0,0,0,.29-0.06l2.81-.94a2.49,2.49,0,0,0,.35-0.23l11.07-11,1.46,1.46-0.7.76a0.81,0.81,0,0,0,0,1.29l8.44,8.44a1,1,0,0,0,.64.29,1.38,1.38,0,0,0,.64-0.29l2.81-2.81a0.81,0.81,0,0,0,0-1.29ZM18.71,66.46l-1.64-2.75,2.75,1.64ZM17.07,86.86l-2.05.7-0.12-.12,0.7-2.05L31.37,69.57a1,1,0,0,0,.29-0.64V67.05a3.3,3.3,0,0,1,3-3.63h0.12L33.65,65.7a1,1,0,0,0,.18,1.05l1.88,1.88a1,1,0,0,0,1.05.18L39,67.7a3.33,3.33,0,0,1-3.63,3.11H33.53a1.38,1.38,0,0,0-.64.29Zm22.09,0.41-7.09-7.09,1.46-1.46,7.09,7.09Z"/><path class="cls-1" d="M42.22,20.38l-4.1-1.64V10a1,1,0,0,0-.94-0.94H18.43a1,1,0,0,0-.94.94v8.73l-4.1,1.64a1.2,1.2,0,0,0-.59.88V38.14a1,1,0,0,0,.94.94H41.87a1,1,0,0,0,.94-0.94V21.26A1.08,1.08,0,0,0,42.22,20.38ZM40,21.5l-1.87,1.17V20.79ZM36.24,11V23.84L27.8,29.06l-8.44-5.21V11H36.24ZM17.49,22.67L15.62,21.5l1.88-.7v1.88ZM14.68,37.2V23.14L27.33,31a1,1,0,0,0,.94,0l12.66-7.85V37.2H14.68Zm15-22.5h3.75a0.94,0.94,0,0,0,0-1.87H29.68A0.94,0.94,0,0,0,29.68,14.7Zm-7.5,3.75H33.43a0.94,0.94,0,0,0,0-1.87H22.18A0.94,0.94,0,0,0,22.18,18.45Zm0,3.75H33.43a0.94,0.94,0,0,0,0-1.87H22.18A0.94,0.94,0,0,0,22.18,22.2Z"/><path class="cls-1" d="M98.61,70.76l-4.1-1.64V60.39a1,1,0,0,0-.94-0.94H74.82a1,1,0,0,0-.94.94v8.73l-4.1,1.64a1.2,1.2,0,0,0-.59.88V88.51a1,1,0,0,0,.94.94H98.26a1,1,0,0,0,.94-0.94V71.64A1.08,1.08,0,0,0,98.61,70.76Zm-2.23,1.11L94.51,73V71.17ZM92.63,61.33V74.22L84.2,79.43l-8.44-5.21V61.33H92.63ZM73.88,73L72,71.87l1.88-.7V73ZM71.07,87.58V73.51l12.66,7.85a1,1,0,0,0,.94,0l12.66-7.85V87.58H71.07Zm15-22.5h3.75a0.94,0.94,0,0,0,0-1.88H86.07A0.94,0.94,0,0,0,86.07,65.08Zm-7.5,3.75H89.82a0.94,0.94,0,1,0,0-1.87H78.57A0.94,0.94,0,0,0,78.57,68.83Zm0,3.75H89.82a0.94,0.94,0,1,0,0-1.87H78.57A0.94,0.94,0,0,0,78.57,72.58Z"/></svg>