<svg id="Layer_1" data-name="Layer 1" xmlns="http://www.w3.org/2000/svg" viewBox="0 0 112 100"><defs><style>.cls-1{opacity:0.12;}</style></defs><title>ic_hero</title><path class="cls-1" d="M90.82,25.79a0.81,0.81,0,0,0-1.29,0l-0.76.7L87.31,25l3.28-3.28h1.46q5.45-.35,5.63-6.56a1.11,1.11,0,0,0-.47-0.82,0.88,0.88,0,0,0-.88,0l-3.16,1.58L92.23,15l1.58-3.16a0.88,0.88,0,0,0,0-.88A1.27,1.27,0,0,0,93,10.49q-6.45.18-6.56,5.63v1.46l-3.28,3.28-5.21-5.21,0.7-.76a1,1,0,0,0,.29-0.76,1.41,1.41,0,0,0-.47-0.7l-4.69-2.81a0.82,0.82,0,0,0-1.11.18l-0.94.94a0.91,0.91,0,0,0-.18,1.11l2.81,4.69a1.84,1.84,0,0,0,.7.47h0.12a1.38,1.38,0,0,0,.64-0.29l0.76-.7,5.21,5.21-11,11.07a0.42,0.42,0,0,0-.18.29l-0.06.06-0.94,2.81a1,1,0,0,0,.23.94l0.94,0.94a1,1,0,0,0,.64.29,0.46,0.46,0,0,0,.29-0.06l2.81-.94a2.49,2.49,0,0,0,.35-0.23L86,26.37l1.46,1.46-0.7.76a0.81,0.81,0,0,0,0,1.29l8.44,8.44a1,1,0,0,0,.64.29,1.38,1.38,0,0,0,.64-0.29l2.81-2.81a0.81,0.81,0,0,0,0-1.29ZM75.35,15.53l-1.64-2.75,2.75,1.64ZM73.71,35.92l-2.05.7-0.12-.12,0.7-2.05L88,18.64A1,1,0,0,0,88.3,18V16.12a3.3,3.3,0,0,1,3-3.63h0.12l-1.11,2.29a1,1,0,0,0,.18,1.05l1.88,1.88a1,1,0,0,0,1.05.18l2.29-1.11a3.33,3.33,0,0,1-3.63,3.11H90.18a1.38,1.38,0,0,0-.64.29ZM95.8,36.33l-7.09-7.09,1.46-1.46,7.09,7.09Z"/><path class="cls-1" d="M34.69,76.42a0.81,0.81,0,0,0-1.29,0l-0.76.7-1.46-1.46,3.28-3.28h1.46q5.45-.35,5.63-6.56A1.11,1.11,0,0,0,41.08,65a0.88,0.88,0,0,0-.88,0L37,66.58l-0.94-.94,1.58-3.16a0.88,0.88,0,0,0,0-.88,1.27,1.27,0,0,0-.82-0.47q-6.45.18-6.56,5.63v1.46L27,71.5,21.8,66.28l0.7-.76a1,1,0,0,0,.29-0.76,1.41,1.41,0,0,0-.47-0.7l-4.69-2.81a0.82,0.82,0,0,0-1.11.18l-0.94.94a0.91,0.91,0,0,0-.18,1.11l2.81,4.69a1.84,1.84,0,0,0,.7.47H19a1.38,1.38,0,0,0,.64-0.29l0.76-.7,5.21,5.21-11,11.07a0.42,0.42,0,0,0-.18.29l-0.06.06-0.94,2.81a1,1,0,0,0,.23.94L14.65,89a1,1,0,0,0,.64.29,0.46,0.46,0,0,0,.29-0.06l2.81-.94A2.49,2.49,0,0,0,18.75,88L29.83,77l1.46,1.46-0.7.76a0.81,0.81,0,0,0,0,1.29L39,89a1,1,0,0,0,.64.29A1.38,1.38,0,0,0,40.32,89l2.81-2.81a0.81,0.81,0,0,0,0-1.29ZM19.22,66.17l-1.64-2.75,2.75,1.64ZM17.58,86.56l-2.05.7-0.12-.12,0.7-2.05L31.88,69.27a1,1,0,0,0,.29-0.64V66.75a3.3,3.3,0,0,1,3-3.63h0.12l-1.11,2.29a1,1,0,0,0,.18,1.05l1.88,1.88a1,1,0,0,0,1.05.18l2.29-1.11a3.33,3.33,0,0,1-3.63,3.11H34a1.38,1.38,0,0,0-.64.29ZM39.67,87l-7.09-7.09L34,78.41l7.09,7.09Z"/><path class="cls-1" d="M27.51,10.48a1,1,0,0,0,.94.94,12.68,12.68,0,0,1,9.26,3.87,12.38,12.38,0,0,1,3.87,9.26,13,13,0,0,1-3.75,9.2V31.11a0.94,0.94,0,1,0-1.87,0v5.62h5.63a0.94,0.94,0,0,0,0-1.87H39.35a14.63,14.63,0,0,0,4.1-10.31,14.76,14.76,0,0,0-4.39-10.61A14.58,14.58,0,0,0,28.45,9.54,1,1,0,0,0,27.51,10.48ZM17.85,35.15a14.58,14.58,0,0,0,10.61,4.39,0.94,0.94,0,0,0,0-1.87,12.68,12.68,0,0,1-9.26-3.87,12.38,12.38,0,0,1-3.87-9.26,13,13,0,0,1,3.75-9.2V18A0.94,0.94,0,0,0,21,18V12.36H15.33a0.94,0.94,0,0,0,0,1.88h2.23a14.63,14.63,0,0,0-4.1,10.31A14.76,14.76,0,0,0,17.85,35.15Z"/><path class="cls-1" d="M83.64,61.12a1,1,0,0,0,.94.94,12.68,12.68,0,0,1,9.26,3.87,12.38,12.38,0,0,1,3.87,9.26A13,13,0,0,1,94,84.38V81.74a0.94,0.94,0,0,0-1.87,0v5.63h5.63a0.94,0.94,0,0,0,0-1.87H95.48a15,15,0,0,0-10.9-25.31A1,1,0,0,0,83.64,61.12ZM74,85.78a14.58,14.58,0,0,0,10.61,4.39,0.94,0.94,0,0,0,0-1.87,12.68,12.68,0,0,1-9.26-3.87,12.38,12.38,0,0,1-3.87-9.26A13,13,0,0,1,75.21,66v2.64a0.94,0.94,0,0,0,1.88,0V63H71.46a0.94,0.94,0,0,0,0,1.88h2.23A15,15,0,0,0,74,85.78Z"/></svg>