<svg xmlns="http://www.w3.org/2000/svg" xmlns:xlink="http://www.w3.org/1999/xlink" viewBox="2652 -8513 60 60">
  <defs>
    <style>
      .cls-1 {
        clip-path: url(#clip-category_networking);
      }

      .cls-2 {
        fill: #0096ea;
      }

      .cls-3 {
        fill: #fff;
      }
    </style>
    <clipPath id="clip-category_networking">
      <rect x="2652" y="-8513" width="60" height="60"/>
    </clipPath>
  </defs>
  <g id="category_networking" class="cls-1">
    <rect id="Rectangle_9737" data-name="Rectangle 9737" class="cls-2" width="60" height="60" rx="7" transform="translate(2652 -8513)"/>
    <path id="e047" class="cls-3" d="M29.941-47.3v-.059l-.059-.059v-.059l-.059-.059-.117-.117-3.75-3.75a.806.806,0,0,0-1.289,0,.806.806,0,0,0,0,1.289l2.109,2.168H22.09l-15,15H.938A.95.95,0,0,0,0-32.012a.95.95,0,0,0,.938.938H7.91l15-15h3.867l-2.109,2.168a.806.806,0,0,0,0,1.289,1.049,1.049,0,0,0,.645.293,1.383,1.383,0,0,0,.645-.293l3.75-3.75.117-.117.059-.059V-46.6l.059-.059v-.059A.052.052,0,0,1,30-46.777v-.41q0-.059-.029-.059h-.029Zm0,15.645v-.059A.052.052,0,0,1,30-31.777v-.41q0-.059-.029-.059h-.029v-.117l-.059-.059v-.059l-.059-.059-.117-.117-3.75-3.75a.806.806,0,0,0-1.289,0,.806.806,0,0,0,0,1.289l2.109,2.168H22.91l-4.453-4.395a.806.806,0,0,0-1.289,0,.806.806,0,0,0,0,1.289l4.922,4.98h4.687l-2.109,2.168a.806.806,0,0,0,0,1.289,1.049,1.049,0,0,0,.645.293,1.383,1.383,0,0,0,.645-.293l3.75-3.75.117-.117.059-.059V-31.6Zm-29-14.414H7.09l4.453,4.395a1.049,1.049,0,0,0,.645.293,1.383,1.383,0,0,0,.645-.293.806.806,0,0,0,0-1.289L7.91-47.949H.938A.95.95,0,0,0,0-47.012.95.95,0,0,0,.938-46.074Zm0,0" transform="translate(2667 -8443.271)"/>
  </g>
</svg>
