<svg xmlns="http://www.w3.org/2000/svg" xmlns:xlink="http://www.w3.org/1999/xlink" viewBox="2572 -8513 60 60">
  <defs>
    <style>
      .cls-1 {
        clip-path: url(#clip-category_storage);
      }

      .cls-2 {
        fill: #0096ea;
      }

      .cls-3 {
        fill: #fff;
      }
    </style>
    <clipPath id="clip-category_storage">
      <rect x="2572" y="-8513" width="60" height="60"/>
    </clipPath>
  </defs>
  <g id="category_storage" class="cls-1">
    <rect id="Rectangle_9736" data-name="Rectangle 9736" class="cls-2" width="60" height="60" rx="7" transform="translate(2572 -8513)"/>
    <g id="Group_2730" data-name="Group 2730" transform="translate(2589 -8546)">
      <path id="Path_181" data-name="Path 181" class="cls-3" d="M25.714,48.857A.81.81,0,0,0,24.857,48h-24A.81.81,0,0,0,0,48.857v6.857a.81.81,0,0,0,.857.857h24a.81.81,0,0,0,.857-.857Zm-1.714,6H1.714V49.714H24Z"/>
      <path id="Path_182" data-name="Path 182" class="cls-3" d="M25.714,61.857A.81.81,0,0,0,24.857,61h-24A.81.81,0,0,0,0,61.857v6.857a.81.81,0,0,0,.857.857h24a.81.81,0,0,0,.857-.857Zm-1.714,6H1.714V62.714H24Z" transform="translate(0 -1.857)"/>
      <path id="Path_183" data-name="Path 183" class="cls-3" d="M25.714,73.857A.81.81,0,0,0,24.857,73h-24A.81.81,0,0,0,0,73.857v6.857a.81.81,0,0,0,.857.857h24a.81.81,0,0,0,.857-.857Zm-1.714,6H1.714V74.714H24Z" transform="translate(0 -3.571)"/>
    </g>
  </g>
</svg>
