<svg xmlns="http://www.w3.org/2000/svg" xmlns:xlink="http://www.w3.org/1999/xlink" viewBox="2732 -8513 60 60">
  <defs>
    <style>
      .cls-1 {
        clip-path: url(#clip-category_dev);
      }

      .cls-2 {
        fill: #0096ea;
      }

      .cls-3 {
        fill: #fff;
      }
    </style>
    <clipPath id="clip-category_dev">
      <rect x="2732" y="-8513" width="60" height="60"/>
    </clipPath>
  </defs>
  <g id="category_dev" class="cls-1">
    <rect id="Rectangle_9738" data-name="Rectangle 9738" class="cls-2" width="60" height="60" rx="7" transform="translate(2732 -8513)"/>
    <path id="e065" class="cls-3" d="M29.063-60H.938A.95.95,0,0,0,0-59.062v28.125A.95.95,0,0,0,.938-30H29.063A.95.95,0,0,0,30-30.937V-59.062A.95.95,0,0,0,29.063-60Zm-.937,28.125H1.875v-26.25h26.25ZM4.688-52.5H6.563v17.813a.95.95,0,0,0,.937.938.95.95,0,0,0,.938-.937V-52.5h1.875a.95.95,0,0,0,.938-.937.95.95,0,0,0-.937-.937H8.438v-.937A.95.95,0,0,0,7.5-56.25a.95.95,0,0,0-.937.938v.938H4.688a.95.95,0,0,0-.937.938A.95.95,0,0,0,4.688-52.5Zm15,16.875h1.875v.938a.95.95,0,0,0,.938.938.95.95,0,0,0,.938-.937v-.937h1.875a.95.95,0,0,0,.938-.937.95.95,0,0,0-.937-.937H23.438V-55.312a.95.95,0,0,0-.937-.937.95.95,0,0,0-.937.938V-37.5H19.688a.95.95,0,0,0-.937.938A.95.95,0,0,0,19.688-35.625Zm-7.5-8.438h1.875v9.375A.95.95,0,0,0,15-33.75a.95.95,0,0,0,.938-.937v-9.375h1.875A.95.95,0,0,0,18.75-45a.95.95,0,0,0-.937-.937H15.938v-9.375A.95.95,0,0,0,15-56.25a.95.95,0,0,0-.937.938v9.375H12.188A.95.95,0,0,0,11.25-45,.95.95,0,0,0,12.188-44.063Zm0,0" transform="translate(2747 -8438)"/>
  </g>
</svg>
