<svg xmlns="http://www.w3.org/2000/svg" xmlns:xlink="http://www.w3.org/1999/xlink" viewBox="2960 -8513 60 60">
  <defs>
    <style>
      .cls-1 {
        clip-path: url(#clip-category_monitoring);
      }

      .cls-2 {
        fill: #0096ea;
      }

      .cls-3 {
        fill: #fff;
      }
    </style>
    <clipPath id="clip-category_monitoring">
      <rect x="2960" y="-8513" width="60" height="60"/>
    </clipPath>
  </defs>
  <g id="category_monitoring" class="cls-1">
    <rect id="Rectangle_9741" data-name="Rectangle 9741" class="cls-2" width="60" height="60" rx="7" transform="translate(2960 -8513)"/>
    <path id="e085" class="cls-3" d="M15-60A14.761,14.761,0,0,0,4.395-55.605,14.578,14.578,0,0,0,0-45,14.761,14.761,0,0,0,4.395-34.395,14.578,14.578,0,0,0,15-30a14.761,14.761,0,0,0,10.605-4.395A14.578,14.578,0,0,0,30-45a14.761,14.761,0,0,0-4.395-10.605A14.578,14.578,0,0,0,15-60Zm9.258,24.258A12.507,12.507,0,0,1,15-31.875a12.68,12.68,0,0,1-9.258-3.867A12.384,12.384,0,0,1,1.875-45a12.68,12.68,0,0,1,3.867-9.258A12.507,12.507,0,0,1,15-58.125a12.68,12.68,0,0,1,9.258,3.867A12.384,12.384,0,0,1,28.125-45,12.68,12.68,0,0,1,24.258-35.742ZM15-56.25a11.161,11.161,0,0,0-7.969,3.281A11.1,11.1,0,0,0,3.75-45a.95.95,0,0,0,.938.938A.95.95,0,0,0,5.625-45a9.341,9.341,0,0,1,2.754-6.621A9.154,9.154,0,0,1,15-54.375a9.341,9.341,0,0,1,6.621,2.754A9.154,9.154,0,0,1,24.375-45a.95.95,0,0,0,.938.938A.95.95,0,0,0,26.25-45a11.3,11.3,0,0,0-3.281-7.969A10.975,10.975,0,0,0,15-56.25Zm0,10.781a.816.816,0,0,0-.352.059l-2.7-3.047a.955.955,0,0,0-1.348-.059.955.955,0,0,0-.059,1.348l2.7,2.988a1.928,1.928,0,0,0-.117.586,2.2,2.2,0,0,0,.527,1.348A2.1,2.1,0,0,0,15-41.719a2.2,2.2,0,0,0,1.348-.527,1.807,1.807,0,0,0,.176-2.461.918.918,0,0,1-.176-.234A1.955,1.955,0,0,0,15-45.469Zm0,0" transform="translate(2975 -8438)"/>
  </g>
</svg>
