<svg xmlns="http://www.w3.org/2000/svg" xmlns:xlink="http://www.w3.org/1999/xlink" viewBox="3188 -8513 60 60">
  <defs>
    <style>
      .cls-1 {
        clip-path: url(#clip-category_analytics);
      }

      .cls-2 {
        fill: #0096ea;
      }

      .cls-3 {
        fill: #fff;
      }
    </style>
    <clipPath id="clip-category_analytics">
      <rect x="3188" y="-8513" width="60" height="60"/>
    </clipPath>
  </defs>
  <g id="category_analytics" class="cls-1">
    <rect id="Rectangle_9744" data-name="Rectangle 9744" class="cls-2" width="60" height="60" rx="7" transform="translate(3188 -8513)"/>
    <path id="e024" class="cls-3" d="M29.063-31.875h-.937V-45a1.727,1.727,0,0,0-1.289-1.816,3.683,3.683,0,0,0-.586-.059H23.438a1.727,1.727,0,0,0-1.816,1.289,3.683,3.683,0,0,0-.059.586v13.125h-.937v-22.5a1.727,1.727,0,0,0-1.289-1.816,3.683,3.683,0,0,0-.586-.059H15.938a1.727,1.727,0,0,0-1.816,1.289,3.683,3.683,0,0,0-.059.586v22.5h-.937v-8.437a1.727,1.727,0,0,0-1.289-1.816,3.683,3.683,0,0,0-.586-.059H8.438A1.727,1.727,0,0,0,6.621-40.9a3.683,3.683,0,0,0-.059.586v8.438H1.875v-3.75H3.75a.95.95,0,0,0,.938-.937A.95.95,0,0,0,3.75-37.5H1.875v-2.812a.95.95,0,0,0,.938-.937.95.95,0,0,0-.938-.938V-45H3.75a.95.95,0,0,0,.938-.937.95.95,0,0,0-.937-.937H1.875v-2.812a.95.95,0,0,0,.938-.937.95.95,0,0,0-.938-.937v-2.812H3.75a.95.95,0,0,0,.938-.937.95.95,0,0,0-.937-.937H1.875v-2.812A.95.95,0,0,0,.938-60,.95.95,0,0,0,0-59.062v27.188a1.727,1.727,0,0,0,1.289,1.816A3.683,3.683,0,0,0,1.875-30H29.063A.95.95,0,0,0,30-30.937.95.95,0,0,0,29.063-31.875ZM23.438-45H26.25v13.125H23.438Zm-7.5-9.375H18.75v22.5H15.938Zm-7.5,14.063H11.25v8.438H8.438Zm0,0" transform="translate(3203 -8438)"/>
  </g>
</svg>
