<svg xmlns="http://www.w3.org/2000/svg" xmlns:xlink="http://www.w3.org/1999/xlink" viewBox="2808 -8513 60 60">
  <defs>
    <style>
      .cls-1 {
        clip-path: url(#clip-category_collaboration);
      }

      .cls-2 {
        fill: #0096ea;
      }

      .cls-3 {
        fill: #fff;
      }
    </style>
    <clipPath id="clip-category_collaboration">
      <rect x="2808" y="-8513" width="60" height="60"/>
    </clipPath>
  </defs>
  <g id="category_collaboration" class="cls-1">
    <rect id="Rectangle_9739" data-name="Rectangle 9739" class="cls-2" width="60" height="60" rx="7" transform="translate(2808 -8513)"/>
    <path id="e04e" class="cls-3" d="M0-31.406A1.727,1.727,0,0,0,1.289-29.59a3.683,3.683,0,0,0,.586.059H18.75a1.727,1.727,0,0,0,1.816-1.289,3.683,3.683,0,0,0,.059-.586v-18.75a3.8,3.8,0,0,0-.937-2.285L15.41-56.719a3.8,3.8,0,0,0-2.285-.937H1.875A1.727,1.727,0,0,0,.059-56.367,3.683,3.683,0,0,0,0-55.781ZM17.4-52.031H15v-2.4ZM1.875-55.781h11.25v3.75a1.727,1.727,0,0,0,1.289,1.816,3.683,3.683,0,0,0,.586.059h3.75v18.75H1.875Zm26.25-1.875H26.25a1.727,1.727,0,0,0-1.816,1.289,3.683,3.683,0,0,0-.059.586v21.563a4.8,4.8,0,0,0,.527,2.168l1.055,2.109a1.54,1.54,0,0,0,1.23.879,1.438,1.438,0,0,0,1.23-.879l1.055-2.109A4.8,4.8,0,0,0,30-34.219V-55.781A1.727,1.727,0,0,0,28.711-57.6,3.683,3.683,0,0,0,28.125-57.656Zm0,1.875v2.813H26.25v-2.813Zm-.293,22.91-.645,1.23-.645-1.23a3.5,3.5,0,0,1-.293-1.348V-51.094h1.875v16.875A3.824,3.824,0,0,1,27.832-32.871ZM4.688-51.094H9.844a.95.95,0,0,0,.938-.937.95.95,0,0,0-.937-.937H4.688a.95.95,0,0,0-.937.938A.95.95,0,0,0,4.688-51.094Zm11.25,2.812H4.688a.95.95,0,0,0-.937.938.95.95,0,0,0,.938.937h11.25a.95.95,0,0,0,.938-.937A.95.95,0,0,0,15.938-48.281Zm0,3.75H4.688a.95.95,0,0,0-.937.938.95.95,0,0,0,.938.938h11.25a.95.95,0,0,0,.938-.937A.95.95,0,0,0,15.938-44.531Zm0,3.75H4.688a.95.95,0,0,0-.937.938.95.95,0,0,0,.938.938h11.25a.95.95,0,0,0,.938-.937A.95.95,0,0,0,15.938-40.781Zm0,3.75H4.688a.95.95,0,0,0-.937.938.95.95,0,0,0,.938.938h11.25a.95.95,0,0,0,.938-.937A.95.95,0,0,0,15.938-37.031Zm0,0" transform="translate(2823 -8439.344)"/>
  </g>
</svg>
