<svg xmlns="http://www.w3.org/2000/svg" xmlns:xlink="http://www.w3.org/1999/xlink" viewBox="3036 -8513 60 60">
  <defs>
    <style>
      .cls-1 {
        clip-path: url(#clip-category_messaging);
      }

      .cls-2 {
        fill: #0096ea;
      }

      .cls-3 {
        fill: #fff;
      }
    </style>
    <clipPath id="clip-category_messaging">
      <rect x="3036" y="-8513" width="60" height="60"/>
    </clipPath>
  </defs>
  <g id="category_messaging" class="cls-1">
    <rect id="Rectangle_9742" data-name="Rectangle 9742" class="cls-2" width="60" height="60" rx="7" transform="translate(3036 -8513)"/>
    <path id="e016" class="cls-3" d="M4.688-48.75H25.313a.95.95,0,0,0,.937-.937.95.95,0,0,0-.937-.938H4.688a.95.95,0,0,0-.937.938A.95.95,0,0,0,4.688-48.75Zm0,4.688H25.313A.95.95,0,0,0,26.25-45a.95.95,0,0,0-.937-.937H4.688A.95.95,0,0,0,3.75-45,.95.95,0,0,0,4.688-44.062Zm21.563,3.75a.95.95,0,0,0-.937-.937H4.688a.95.95,0,0,0-.937.938.95.95,0,0,0,.938.938H25.313A.95.95,0,0,0,26.25-40.312ZM0-35.156a.95.95,0,0,0,.938.938H7.5v4.688a1.242,1.242,0,0,0,.527.879,1.3,1.3,0,0,0,.41.059,1.323,1.323,0,0,0,.586-.234l6.328-5.391H29.063A.95.95,0,0,0,30-35.156V-54.844a.95.95,0,0,0-.937-.937H.938A.95.95,0,0,0,0-54.844Zm1.875-18.75h26.25v17.813H15a1.023,1.023,0,0,0-.586.234L9.375-31.582v-3.574a.95.95,0,0,0-.937-.937H1.875Zm0,0" transform="translate(3051 -8441.219)"/>
  </g>
</svg>
