<svg xmlns="http://www.w3.org/2000/svg" xmlns:xlink="http://www.w3.org/1999/xlink" viewBox="2884 -8513 60 60">
  <defs>
    <style>
      .cls-1 {
        clip-path: url(#clip-category_security);
      }

      .cls-2 {
        fill: #0096ea;
      }

      .cls-3 {
        fill: #fff;
      }
    </style>
    <clipPath id="clip-category_security">
      <rect x="2884" y="-8513" width="60" height="60"/>
    </clipPath>
  </defs>
  <g id="category_security" class="cls-1">
    <rect id="Rectangle_9740" data-name="Rectangle 9740" class="cls-2" width="60" height="60" rx="7" transform="translate(2884 -8513)"/>
    <path id="e032" class="cls-3" d="M6.563-51.563V-45H3.75a.95.95,0,0,0-.937.938v13.125A.95.95,0,0,0,3.75-30h22.5a.95.95,0,0,0,.937-.937V-44.063A.95.95,0,0,0,26.25-45H23.438v-6.562A8.115,8.115,0,0,0,20.1-58.3,8.5,8.5,0,0,0,15-60a8.115,8.115,0,0,0-6.738,3.34A8.5,8.5,0,0,0,6.563-51.563Zm18.75,19.688H4.688v-11.25H25.313ZM15-58.125a6.2,6.2,0,0,1,5.449,2.871,6.6,6.6,0,0,1,1.113,3.691V-45H8.438v-6.562a6.2,6.2,0,0,1,2.871-5.449A6.6,6.6,0,0,1,15-58.125ZM15-41.25a2.709,2.709,0,0,0-2.578,1.641,3.135,3.135,0,0,0-.234,1.172,2.57,2.57,0,0,0,1.641,2.578.959.959,0,0,0,.234.059v1.113A.95.95,0,0,0,15-33.75a.95.95,0,0,0,.938-.937V-35.8a3.1,3.1,0,0,0,1.875-2.637,2.709,2.709,0,0,0-1.641-2.578A3.135,3.135,0,0,0,15-41.25Zm0,3.75a.95.95,0,0,1-.937-.937A.95.95,0,0,1,15-39.375a.95.95,0,0,1,.938.938A.95.95,0,0,1,15-37.5Zm0,0" transform="translate(2899.188 -8441)"/>
  </g>
</svg>
