<svg xmlns="http://www.w3.org/2000/svg" viewBox="566 -5083 90.012 81.497">
  <defs>
    <style>
      .cls-1 {
        fill: rgba(0,0,0,0.12);
      }

      .cls-2 {
        opacity: 0.12;
      }
    </style>
  </defs>
  <g id="Group_2784" data-name="Group 2784" transform="translate(-10295 -6389.881)">
    <path id="e05c" class="cls-1" d="M23.064-40.718a.874.874,0,0,0-1.4,0l-.826.763-1.589-1.589L22.81-45.1H24.4q5.91-.381,6.1-7.117a1.205,1.205,0,0,0-.508-.89.956.956,0,0,0-.953,0l-3.431,1.716L24.589-52.41,26.3-55.841a.956.956,0,0,0,0-.953,1.379,1.379,0,0,0-.89-.508q-6.99.191-7.117,6.1v1.589L14.74-46.055,9.084-51.711l.763-.826a1.117,1.117,0,0,0,.318-.826,1.524,1.524,0,0,0-.508-.763l-5.083-3.05a.89.89,0,0,0-1.207.191L2.349-55.968a.989.989,0,0,0-.191,1.207l3.05,5.083a2,2,0,0,0,.763.508H6.1a1.5,1.5,0,0,0,.7-.318l.826-.763,5.655,5.655L1.332-32.584a.456.456,0,0,0-.191.318l-.064.064L.061-29.153a1.056,1.056,0,0,0,.254,1.017l1.017,1.017a1.138,1.138,0,0,0,.7.318.5.5,0,0,0,.318-.064L5.4-27.882a2.7,2.7,0,0,0,.381-.254L17.79-40.082l1.589,1.589-.763.826a.874.874,0,0,0,0,1.4l9.15,9.15a1.138,1.138,0,0,0,.7.318,1.5,1.5,0,0,0,.7-.318l3.05-3.05a.874.874,0,0,0,0-1.4ZM6.288-51.838,4.509-54.825,7.5-53.045ZM4.509-29.725l-2.224.763-.127-.127.763-2.224L20.014-48.47a1.138,1.138,0,0,0,.318-.7V-51.2a3.576,3.576,0,0,1,3.241-3.94H23.7l-1.207,2.478a1.035,1.035,0,0,0,.191,1.144l2.033,2.033a1.035,1.035,0,0,0,1.144.191L28.338-50.5a3.616,3.616,0,0,1-3.94,3.368H22.365a1.5,1.5,0,0,0-.7.318Zm23.956.445-7.689-7.689,1.589-1.589,7.689,7.689Zm0,0" transform="translate(10860.971 1415.18)"/>
    <path id="e05c-2" data-name="e05c" class="cls-1" d="M23.064-40.718a.874.874,0,0,0-1.4,0l-.826.763-1.589-1.589L22.81-45.1H24.4q5.91-.381,6.1-7.117a1.205,1.205,0,0,0-.508-.89.956.956,0,0,0-.953,0l-3.431,1.716L24.589-52.41,26.3-55.841a.956.956,0,0,0,0-.953,1.379,1.379,0,0,0-.89-.508q-6.99.191-7.117,6.1v1.589L14.74-46.055,9.084-51.711l.763-.826a1.117,1.117,0,0,0,.318-.826,1.524,1.524,0,0,0-.508-.763l-5.083-3.05a.89.89,0,0,0-1.207.191L2.349-55.968a.989.989,0,0,0-.191,1.207l3.05,5.083a2,2,0,0,0,.763.508H6.1a1.5,1.5,0,0,0,.7-.318l.826-.763,5.655,5.655L1.332-32.584a.456.456,0,0,0-.191.318l-.064.064L.061-29.153a1.056,1.056,0,0,0,.254,1.017l1.017,1.017a1.138,1.138,0,0,0,.7.318.5.5,0,0,0,.318-.064L5.4-27.882a2.7,2.7,0,0,0,.381-.254L17.79-40.082l1.589,1.589-.763.826a.874.874,0,0,0,0,1.4l9.15,9.15a1.138,1.138,0,0,0,.7.318,1.5,1.5,0,0,0,.7-.318l3.05-3.05a.874.874,0,0,0,0-1.4ZM6.288-51.838,4.509-54.825,7.5-53.045ZM4.509-29.725l-2.224.763-.127-.127.763-2.224L20.014-48.47a1.138,1.138,0,0,0,.318-.7V-51.2a3.576,3.576,0,0,1,3.241-3.94H23.7l-1.207,2.478a1.035,1.035,0,0,0,.191,1.144l2.033,2.033a1.035,1.035,0,0,0,1.144.191L28.338-50.5a3.616,3.616,0,0,1-3.94,3.368H22.365a1.5,1.5,0,0,0-.7.318Zm23.956.445-7.689-7.689,1.589-1.589,7.689,7.689Zm0,0" transform="translate(10918.448 1364.209)"/>
    <path id="e03c" class="cls-2" d="M14.063-39.434v7.559H7.969a.95.95,0,0,0-.937.938A.95.95,0,0,0,7.969-30H22.031a.95.95,0,0,0,.938-.937.95.95,0,0,0-.937-.937H15.938v-7.559A8.651,8.651,0,0,0,21.914-43.3a7.922,7.922,0,0,0,1.523-4.512.95.95,0,0,0-.937-.937.95.95,0,0,0-.937.938,6.35,6.35,0,0,1-2.7,5.039A6.081,6.081,0,0,1,15-41.25a6.35,6.35,0,0,1-5.039-2.7,6.081,6.081,0,0,1-1.523-3.867A.95.95,0,0,0,7.5-48.75a.95.95,0,0,0-.937.938,8.212,8.212,0,0,0,3.164,6.328A8.877,8.877,0,0,0,14.063-39.434ZM15-43.125a4.48,4.48,0,0,0,4.043-2.285,4.928,4.928,0,0,0,.645-2.4v-7.5A4.48,4.48,0,0,0,17.4-59.355,4.928,4.928,0,0,0,15-60a4.48,4.48,0,0,0-4.043,2.285,4.928,4.928,0,0,0-.645,2.4v7.5A4.48,4.48,0,0,0,12.6-43.77,4.928,4.928,0,0,0,15-43.125Zm0-15a2.709,2.709,0,0,1,2.578,1.641,3.135,3.135,0,0,1,.234,1.172v.469h-.937a.95.95,0,0,0-.937.938.95.95,0,0,0,.938.938h.938v1.875h-.937a.95.95,0,0,0-.937.938.95.95,0,0,0,.938.938h.938v1.406a2.709,2.709,0,0,1-1.641,2.578A3.135,3.135,0,0,1,15-45a2.709,2.709,0,0,1-2.578-1.641,3.135,3.135,0,0,1-.234-1.172v-1.406h.938a.95.95,0,0,0,.938-.937.95.95,0,0,0-.937-.937h-.937v-1.875h.938a.95.95,0,0,0,.938-.937.95.95,0,0,0-.937-.937h-.937v-.469a2.709,2.709,0,0,1,1.641-2.578A3.135,3.135,0,0,1,15-58.125Zm0,0" transform="translate(10862.438 1367.881)"/>
    <path id="e03c-2" data-name="e03c" class="cls-2" d="M14.063-39.434v7.559H7.969a.95.95,0,0,0-.937.938A.95.95,0,0,0,7.969-30H22.031a.95.95,0,0,0,.938-.937.95.95,0,0,0-.937-.937H15.938v-7.559A8.651,8.651,0,0,0,21.914-43.3a7.922,7.922,0,0,0,1.523-4.512.95.95,0,0,0-.937-.937.95.95,0,0,0-.937.938,6.35,6.35,0,0,1-2.7,5.039A6.081,6.081,0,0,1,15-41.25a6.35,6.35,0,0,1-5.039-2.7,6.081,6.081,0,0,1-1.523-3.867A.95.95,0,0,0,7.5-48.75a.95.95,0,0,0-.937.938,8.212,8.212,0,0,0,3.164,6.328A8.877,8.877,0,0,0,14.063-39.434ZM15-43.125a4.48,4.48,0,0,0,4.043-2.285,4.928,4.928,0,0,0,.645-2.4v-7.5A4.48,4.48,0,0,0,17.4-59.355,4.928,4.928,0,0,0,15-60a4.48,4.48,0,0,0-4.043,2.285,4.928,4.928,0,0,0-.645,2.4v7.5A4.48,4.48,0,0,0,12.6-43.77,4.928,4.928,0,0,0,15-43.125Zm0-15a2.709,2.709,0,0,1,2.578,1.641,3.135,3.135,0,0,1,.234,1.172v.469h-.937a.95.95,0,0,0-.937.938.95.95,0,0,0,.938.938h.938v1.875h-.937a.95.95,0,0,0-.937.938.95.95,0,0,0,.938.938h.938v1.406a2.709,2.709,0,0,1-1.641,2.578A3.135,3.135,0,0,1,15-45a2.709,2.709,0,0,1-2.578-1.641,3.135,3.135,0,0,1-.234-1.172v-1.406h.938a.95.95,0,0,0,.938-.937.95.95,0,0,0-.937-.937h-.937v-1.875h.938a.95.95,0,0,0,.938-.937.95.95,0,0,0-.937-.937h-.937v-.469a2.709,2.709,0,0,1,1.641-2.578A3.135,3.135,0,0,1,15-58.125Zm0,0" transform="translate(10919.438 1417.881)"/>
  </g>
</svg>
