<svg id="Layer_1" data-name="Layer 1" xmlns="http://www.w3.org/2000/svg" viewBox="0 0 112 100"><defs><style>.cls-1{opacity:0.12;}</style></defs><title>ic_hero</title><path class="cls-1" d="M90.44,25.32a0.81,0.81,0,0,0-1.29,0l-0.76.7-1.46-1.46,3.28-3.28h1.46q5.45-.35,5.63-6.56a1.11,1.11,0,0,0-.47-0.82,0.88,0.88,0,0,0-.88,0l-3.16,1.58-0.94-.94,1.58-3.16a0.88,0.88,0,0,0,0-.88A1.27,1.27,0,0,0,92.6,10q-6.45.18-6.56,5.63v1.46L82.76,20.4l-5.21-5.21,0.7-.76a1,1,0,0,0,.29-0.76,1.41,1.41,0,0,0-.47-0.7l-4.69-2.81a0.82,0.82,0,0,0-1.11.18l-0.94.94a0.91,0.91,0,0,0-.18,1.11L74,17.06a1.84,1.84,0,0,0,.7.47h0.12a1.38,1.38,0,0,0,.64-0.29l0.76-.7,5.21,5.21-11,11.07a0.42,0.42,0,0,0-.18.29l-0.06.06L69.23,36a1,1,0,0,0,.23.94l0.94,0.94a1,1,0,0,0,.64.29,0.46,0.46,0,0,0,.29-0.06l2.81-.94a2.49,2.49,0,0,0,.35-0.23l11.07-11L87,27.37l-0.7.76a0.81,0.81,0,0,0,0,1.29l8.44,8.44a1,1,0,0,0,.64.29,1.38,1.38,0,0,0,.64-0.29L98.87,35a0.81,0.81,0,0,0,0-1.29ZM75,15.06l-1.64-2.75L76.08,14ZM73.33,35.46l-2.05.7L71.16,36,71.86,34,87.62,18.17a1,1,0,0,0,.29-0.64V15.65a3.3,3.3,0,0,1,3-3.63H91L89.91,14.3a1,1,0,0,0,.18,1.05L92,17.23a1,1,0,0,0,1.05.18l2.29-1.11a3.33,3.33,0,0,1-3.63,3.11H89.79a1.38,1.38,0,0,0-.64.29Zm22.09,0.41-7.09-7.09,1.46-1.46,7.09,7.09Z"/><path class="cls-1" d="M34.18,76.72a0.81,0.81,0,0,0-1.29,0l-0.76.7L30.66,76l3.28-3.28h1.46q5.45-.35,5.63-6.56a1.11,1.11,0,0,0-.47-0.82,0.88,0.88,0,0,0-.88,0l-3.16,1.58-0.94-.94,1.58-3.16a0.88,0.88,0,0,0,0-.88,1.27,1.27,0,0,0-.82-0.47q-6.45.18-6.56,5.63v1.46L26.5,71.8l-5.21-5.21,0.7-.76a1,1,0,0,0,.29-0.76,1.41,1.41,0,0,0-.47-0.7l-4.69-2.81a0.82,0.82,0,0,0-1.11.18l-0.94.94a0.91,0.91,0,0,0-.18,1.11l2.81,4.69a1.84,1.84,0,0,0,.7.47h0.12a1.38,1.38,0,0,0,.64-0.29l0.76-.7,5.21,5.21-11,11.07a0.42,0.42,0,0,0-.18.29l-0.06.06L13,87.38a1,1,0,0,0,.23.94l0.94,0.94a1,1,0,0,0,.64.29,0.46,0.46,0,0,0,.29-0.06l2.81-.94a2.49,2.49,0,0,0,.35-0.23l11.07-11,1.46,1.46-0.7.76a0.81,0.81,0,0,0,0,1.29l8.44,8.44a1,1,0,0,0,.64.29,1.38,1.38,0,0,0,.64-0.29l2.81-2.81a0.81,0.81,0,0,0,0-1.29ZM18.71,66.46l-1.64-2.75,2.75,1.64ZM17.07,86.86l-2.05.7-0.12-.12,0.7-2.05L31.37,69.57a1,1,0,0,0,.29-0.64V67.05a3.3,3.3,0,0,1,3-3.63h0.12L33.65,65.7a1,1,0,0,0,.18,1.05l1.88,1.88a1,1,0,0,0,1.05.18L39,67.7a3.33,3.33,0,0,1-3.63,3.11H33.53a1.38,1.38,0,0,0-.64.29Zm22.09,0.41-7.09-7.09,1.46-1.46,7.09,7.09Z"/><path class="cls-1" d="M17.63,17.53H38.25a0.94,0.94,0,0,0,0-1.87H17.63A0.94,0.94,0,0,0,17.63,17.53Zm0,4.69H38.25a0.94,0.94,0,0,0,0-1.87H17.63A0.94,0.94,0,0,0,17.63,22.21ZM39.19,26A1,1,0,0,0,38.25,25H17.63a0.94,0.94,0,0,0,0,1.88H38.25A1,1,0,0,0,39.19,26ZM12.94,31.12a1,1,0,0,0,.94.94h6.56v4.69a1.24,1.24,0,0,0,.53.88,1.3,1.3,0,0,0,.41.06A1.32,1.32,0,0,0,22,37.45l6.33-5.39H42a1,1,0,0,0,.94-0.94V11.43A1,1,0,0,0,42,10.49H13.88a1,1,0,0,0-.94.94V31.12Zm1.88-18.75H41.06V30.18H27.94a1,1,0,0,0-.59.23l-5,4.28V31.12a1,1,0,0,0-.94-0.94H14.81V12.37Z"/><path class="cls-1" d="M73.88,67.89H94.51a0.94,0.94,0,1,0,0-1.87H73.88A0.94,0.94,0,0,0,73.88,67.89Zm0,4.69H94.51a0.94,0.94,0,1,0,0-1.87H73.88A0.94,0.94,0,0,0,73.88,72.58Zm21.56,3.75a1,1,0,0,0-.94-0.94H73.88a0.94,0.94,0,0,0,0,1.88H94.51A1,1,0,0,0,95.45,76.33ZM69.2,81.48a1,1,0,0,0,.94.94H76.7v4.69a1.24,1.24,0,0,0,.53.88,1.3,1.3,0,0,0,.41.06,1.32,1.32,0,0,0,.59-0.23l6.33-5.39H98.26a1,1,0,0,0,.94-0.94V61.79a1,1,0,0,0-.94-0.94H70.13a1,1,0,0,0-.94.94V81.48Zm1.88-18.75H97.32V80.54H84.2a1,1,0,0,0-.59.23l-5,4.28V81.48a1,1,0,0,0-.94-0.94H71.07V62.73Z"/></svg>